<svg width="498" height="497" viewBox="0 0 498 497" fill="none" xmlns="http://www.w3.org/2000/svg">
<g clip-path="url(#clip0_85_19)">
<path d="M239.341 12.5345C238.151 22.8507 259.078 37.985 273.841 42.0345C339.337 60 331.837 104 305.837 118.5C260.125 143.993 169.745 208.562 247.341 260.534C207.837 219 259.445 168.572 317.837 148.5C329.337 144.547 354.337 139.147 392.837 155C401.016 158.368 430.337 173.5 420.841 131.535C401.094 44.2638 314.176 9.04605 276.341 1.53452C261.341 0.534534 240.841 -0.465508 239.341 12.5345Z" fill="#F2545B" stroke="#F2545B" stroke-linejoin="round"/>
<path d="M12.5345 261.371C22.8507 262.562 37.985 241.634 42.0345 226.871C60 161.375 104 168.876 118.5 194.875C143.993 240.587 208.562 330.968 260.534 253.371C219 292.876 168.572 241.267 148.5 182.875C144.547 171.376 139.147 146.376 155 107.876C158.368 99.6962 173.5 70.3757 131.535 79.8712C44.2638 99.6181 9.04605 186.536 1.53452 224.371C0.534534 239.371 -0.465508 259.871 12.5345 261.371Z" fill="#F2545B" stroke="#F2545B" stroke-linejoin="round"/>
<path d="M259.371 484C260.562 473.684 239.634 458.549 224.871 454.5C159.376 436.534 166.876 392.534 192.876 378.034C238.587 352.541 328.968 287.972 251.371 236C290.876 277.534 239.267 327.962 180.876 348.034C169.376 351.988 144.376 357.387 105.876 341.534C97.6962 338.166 68.3757 323.034 77.8713 365C97.6181 452.271 184.536 487.488 222.371 495C237.371 496 257.871 497 259.371 484Z" fill="#F2545B" stroke="#F2545B" stroke-linejoin="round"/>
<path d="M486 235.341C475.684 234.151 460.549 255.078 456.5 269.841C438.534 335.337 394.534 327.837 380.034 301.837C354.541 256.125 289.972 165.745 238 243.341C279.534 203.837 329.962 255.445 350.034 313.837C353.988 325.337 359.387 350.337 343.534 388.837C340.166 397.016 325.034 426.337 367 416.841C454.271 397.094 489.488 310.176 497 272.341C498 257.341 499 236.841 486 235.341Z" fill="#F2545B" stroke="#F2545B" stroke-linejoin="round"/>
<path d="M163 170.5C165.015 192.373 177.296 207.5 213 239C186.808 178.172 178.895 159.521 208.192 128.704C237.488 97.8866 234.695 67.745 234.771 66.7479C235.606 55.7845 230.695 20.0399 188.978 12.3119C147.262 4.58388 95.6133 39.0948 80.1919 53.3578C66.2228 66.2775 78.5343 77.4288 88.8585 73.7327C105.219 67.8758 102.505 64.7698 125.988 59.2526C149.47 53.7354 214.299 51.9504 177.296 113.416C161.961 141.894 161.395 153.074 163 170.5Z" fill="#F2545B"/>
<path d="M213 239L212.669 239.375C212.845 239.53 213.104 239.542 213.293 239.405C213.483 239.268 213.552 239.017 213.459 238.802L213 239ZM163 170.5L163.498 170.454L163.498 170.454L163 170.5ZM177.296 113.416L176.868 113.158L176.862 113.168L176.856 113.179L177.296 113.416ZM125.988 59.2526L126.102 59.7394L126.102 59.7394L125.988 59.2526ZM88.8585 73.7327L89.027 74.2035L89.027 74.2035L88.8585 73.7327ZM80.1919 53.3578L80.5314 53.7248L80.5314 53.7248L80.1919 53.3578ZM188.978 12.3119L188.887 12.8035L188.978 12.3119ZM234.771 66.7479L234.272 66.7099L234.272 66.7099L234.771 66.7479ZM208.192 128.704L207.829 128.359L207.829 128.359L208.192 128.704ZM213 239L213.331 238.625C177.612 207.112 165.492 192.105 163.498 170.454L163 170.5L162.502 170.546C164.537 192.641 176.981 207.888 212.669 239.375L213 239ZM163 170.5L163.498 170.454C162.697 161.758 162.443 154.667 164.284 146.209C166.127 137.742 170.078 127.874 177.737 113.653L177.296 113.416L176.856 113.179C169.179 127.436 165.179 137.397 163.307 145.996C161.433 154.604 161.698 161.816 162.502 170.546L163 170.5ZM125.988 59.2526L125.873 58.7659C114.103 61.5314 108.871 63.6993 104.525 65.9201C100.197 68.1317 96.8302 70.3478 88.69 73.262L88.8585 73.7327L89.027 74.2035C97.247 71.2608 100.704 68.9954 104.98 66.8105C109.238 64.6347 114.39 62.4911 126.102 59.7394L125.988 59.2526ZM88.8585 73.7327L88.69 73.262C83.7246 75.0396 78.3153 73.2319 75.8315 69.4992C74.5969 67.6438 74.0701 65.2953 74.6881 62.6243C75.3082 59.9444 77.0894 56.9083 80.5314 53.7248L80.1919 53.3578L79.8524 52.9907C76.3098 56.2671 74.3916 59.4698 73.7139 62.3989C73.0341 65.337 73.6112 67.9677 74.9989 70.0531C77.7596 74.202 83.6682 76.1219 89.027 74.2035L88.8585 73.7327ZM80.1919 53.3578L80.5314 53.7248C88.2025 46.63 104.927 34.4646 124.937 25.0406C144.958 15.612 168.183 8.96799 188.887 12.8035L188.978 12.3119L189.069 11.8203C168.057 7.92779 144.6 14.6753 124.511 24.1359C104.413 33.6011 87.6027 45.8226 79.8524 52.9907L80.1919 53.3578ZM188.978 12.3119L188.887 12.8035C209.593 16.6393 221.127 27.4121 227.396 38.5617C233.678 49.7352 234.684 61.3107 234.272 66.7099L234.771 66.7479L235.27 66.7859C235.693 61.2217 234.661 49.4433 228.267 38.0716C221.86 26.6761 210.08 15.7126 189.069 11.8203L188.978 12.3119ZM234.771 66.7479L234.272 66.7099C234.228 67.2899 234.914 74.9623 231.955 86.4183C229.001 97.857 222.413 113.019 207.829 128.359L208.192 128.704L208.554 129.048C223.267 113.572 229.931 98.254 232.923 86.6684C234.419 80.8769 234.997 76.0204 235.205 72.5454C235.309 70.8078 235.321 69.4161 235.309 68.4263C235.303 67.9315 235.291 67.5377 235.282 67.2533C235.277 67.1101 235.273 66.9983 235.271 66.9135C235.27 66.8713 235.269 66.8388 235.269 66.8145C235.269 66.7872 235.27 66.7809 235.27 66.7859L234.771 66.7479ZM208.192 128.704L207.829 128.359C200.483 136.087 195.441 143.081 192.44 150.19C189.435 157.308 188.488 164.514 189.29 172.647C190.89 188.862 199.46 208.818 212.541 239.198L213 239L213.459 238.802C200.348 208.354 191.866 188.571 190.285 172.549C189.497 164.563 190.428 157.527 193.361 150.579C196.297 143.623 201.253 136.729 208.554 129.048L208.192 128.704ZM177.296 113.416L177.725 113.674C186.998 98.2697 189.953 86.7331 188.687 78.1732C187.414 69.5703 181.898 64.083 174.53 60.76C167.179 57.445 157.95 56.2617 149.116 56.2445C140.275 56.2272 131.781 57.3778 125.873 58.7659L125.988 59.2526L126.102 59.7394C131.935 58.3688 140.351 57.2274 149.114 57.2445C157.883 57.2616 166.952 58.4392 174.118 61.6716C181.268 64.8959 186.488 70.1422 187.698 78.3195C188.914 86.5397 186.096 97.8296 176.868 113.158L177.296 113.416Z" fill="#F2545B"/>
<path d="M172.5 335.148C194.373 333.133 209.5 320.852 241 285.148C180.172 311.34 161.521 319.253 130.704 289.956C99.8867 260.66 69.7452 263.453 68.748 263.377C57.7847 262.542 22.0401 267.453 14.312 309.17C6.584 350.886 41.095 402.535 55.3579 417.956C68.2776 431.925 79.4289 419.614 75.7329 409.289C69.876 392.929 66.77 395.643 61.2528 372.16C55.7355 348.678 53.9506 283.849 115.416 320.852C143.894 336.187 155.074 336.753 172.5 335.148Z" fill="#F2545B"/>
<path d="M241 285.148L241.375 285.479C241.53 285.303 241.542 285.044 241.405 284.854C241.268 284.665 241.017 284.596 240.802 284.689L241 285.148ZM172.5 335.148L172.454 334.65L172.454 334.65L172.5 335.148ZM115.416 320.852L115.158 321.28L115.169 321.286L115.179 321.292L115.416 320.852ZM61.2528 372.16L61.7395 372.046L61.7395 372.046L61.2528 372.16ZM75.7329 409.289L76.2036 409.121L76.2036 409.121L75.7329 409.289ZM55.3579 417.956L55.7249 417.617L55.7249 417.617L55.3579 417.956ZM14.312 309.17L14.8037 309.261L14.312 309.17ZM68.748 263.377L68.7101 263.876L68.7101 263.876L68.748 263.377ZM130.704 289.956L130.36 290.319L130.36 290.319L130.704 289.956ZM241 285.148L240.625 284.817C209.112 320.536 194.106 332.656 172.454 334.65L172.5 335.148L172.546 335.646C194.641 333.611 209.888 321.167 241.375 285.479L241 285.148ZM172.5 335.148L172.454 334.65C163.758 335.451 156.667 335.705 148.209 333.864C139.742 332.02 129.874 328.07 115.653 320.411L115.416 320.852L115.179 321.292C129.436 328.969 139.397 332.969 147.996 334.841C156.604 336.715 163.816 336.45 172.546 335.646L172.5 335.148ZM61.2528 372.16L60.766 372.275C63.5315 384.045 65.6995 389.277 67.9202 393.623C70.1318 397.951 72.3479 401.318 75.2621 409.458L75.7329 409.289L76.2036 409.121C73.2609 400.901 70.9956 397.444 68.8107 393.168C66.6349 388.91 64.4912 383.758 61.7395 372.046L61.2528 372.16ZM75.7329 409.289L75.2621 409.458C77.0397 414.423 75.232 419.833 71.4993 422.316C69.644 423.551 67.2954 424.078 64.6244 423.46C61.9445 422.84 58.9084 421.059 55.7249 417.617L55.3579 417.956L54.9908 418.296C58.2672 421.838 61.4699 423.756 64.399 424.434C67.3371 425.114 69.9678 424.537 72.0533 423.149C76.2021 420.388 78.1221 414.48 76.2036 409.121L75.7329 409.289ZM55.3579 417.956L55.7249 417.617C48.6301 409.945 36.4647 393.221 27.0407 373.211C17.6121 353.19 10.9681 329.965 14.8037 309.261L14.312 309.17L13.8204 309.079C9.92792 330.091 16.6754 353.548 26.136 373.637C35.6012 393.735 47.8227 410.545 54.9908 418.296L55.3579 417.956ZM14.312 309.17L14.8037 309.261C18.6394 288.555 29.4122 277.021 40.5618 270.752C51.7353 264.47 63.3109 263.464 68.7101 263.876L68.748 263.377L68.786 262.878C63.2219 262.455 51.4434 263.487 40.0717 269.881C28.6762 276.288 17.7127 288.068 13.8204 309.079L14.312 309.17ZM68.748 263.377L68.7101 263.876C69.29 263.92 76.9625 263.234 88.4184 266.193C99.8572 269.147 115.019 275.735 130.36 290.319L130.704 289.956L131.049 289.594C115.572 274.881 100.254 268.217 88.6685 265.225C82.877 263.729 78.0205 263.151 74.5455 262.943C72.808 262.839 71.4162 262.827 70.4264 262.839C69.9316 262.845 69.5378 262.857 69.2535 262.866C69.1102 262.871 68.9984 262.875 68.9136 262.877C68.8714 262.878 68.839 262.878 68.8147 262.879C68.7873 262.879 68.781 262.878 68.786 262.878L68.748 263.377ZM130.704 289.956L130.36 290.319C138.088 297.665 145.082 302.707 152.19 305.708C159.308 308.713 166.514 309.66 174.647 308.858C190.862 307.258 210.818 298.688 241.198 285.607L241 285.148L240.802 284.689C210.354 297.799 190.571 306.282 174.549 307.863C166.563 308.65 159.527 307.72 152.579 304.787C145.623 301.85 138.729 296.895 131.049 289.594L130.704 289.956ZM115.416 320.852L115.674 320.423C100.27 311.15 88.7332 308.195 80.1733 309.461C71.5705 310.734 66.0831 316.25 62.7601 323.618C59.4451 330.969 58.2619 340.198 58.2446 349.032C58.2273 357.873 59.3779 366.367 60.766 372.275L61.2528 372.16L61.7395 372.046C60.369 366.213 59.2275 357.797 59.2446 349.034C59.2617 340.265 60.4394 331.196 63.6717 324.029C66.896 316.88 72.1424 311.66 80.3196 310.45C88.5399 309.234 99.8297 312.052 115.158 321.28L115.416 320.852Z" fill="#F2545B"/>
<path d="M330.112 159.024C308.239 161.038 293.112 173.32 261.612 209.024C322.44 182.832 341.091 174.919 371.908 204.216C402.725 233.512 432.867 230.719 433.864 230.795C444.827 231.63 480.572 226.719 488.3 185.002C496.028 143.286 461.517 91.6371 447.254 76.2157C434.334 62.2466 423.183 74.5581 426.879 84.8823C432.736 101.243 435.842 98.529 441.359 122.011C446.877 145.494 448.662 210.323 387.196 173.32C358.718 157.985 347.538 157.419 330.112 159.024Z" fill="#F2545B"/>
<path d="M261.612 209.024L261.237 208.693C261.082 208.868 261.07 209.128 261.207 209.317C261.344 209.507 261.595 209.576 261.81 209.483L261.612 209.024ZM330.112 159.024L330.158 159.522L330.158 159.522L330.112 159.024ZM387.196 173.32L387.454 172.892L387.444 172.886L387.433 172.88L387.196 173.32ZM441.359 122.011L440.873 122.126L440.873 122.126L441.359 122.011ZM426.879 84.8823L426.408 85.0508L426.408 85.0508L426.879 84.8823ZM447.254 76.2157L446.887 76.5552L446.887 76.5552L447.254 76.2157ZM488.3 185.002L487.808 184.911L488.3 185.002ZM433.864 230.795L433.902 230.296L433.902 230.296L433.864 230.795ZM371.908 204.216L372.253 203.853L372.253 203.853L371.908 204.216ZM261.612 209.024L261.987 209.355C293.5 173.636 308.507 161.516 330.158 159.522L330.112 159.024L330.066 158.526C307.971 160.561 292.724 173.004 261.237 208.693L261.612 209.024ZM330.112 159.024L330.158 159.522C338.854 158.721 345.945 158.466 354.403 160.308C362.87 162.151 372.738 166.102 386.959 173.76L387.196 173.32L387.433 172.88C373.176 165.203 363.215 161.203 354.616 159.331C346.008 157.457 338.796 157.722 330.066 158.526L330.112 159.024ZM441.359 122.011L441.846 121.897C439.081 110.127 436.913 104.894 434.692 100.549C432.48 96.2204 430.264 92.854 427.35 84.7138L426.879 84.8823L426.408 85.0508C429.351 93.2708 431.617 96.7278 433.801 101.004C435.977 105.262 438.121 110.414 440.873 122.126L441.359 122.011ZM426.879 84.8823L427.35 84.7138C425.572 79.7484 427.38 74.3391 431.113 71.8553C432.968 70.6207 435.317 70.0939 437.988 70.7119C440.668 71.332 443.704 73.1132 446.887 76.5552L447.254 76.2157L447.621 75.8762C444.345 72.3336 441.142 70.4154 438.213 69.7377C435.275 69.0579 432.644 69.635 430.559 71.0227C426.41 73.7834 424.49 79.692 426.408 85.0508L426.879 84.8823ZM447.254 76.2157L446.887 76.5552C453.982 84.2263 466.147 100.951 475.571 120.961C485 140.982 491.644 164.206 487.808 184.911L488.3 185.002L488.792 185.093C492.684 164.081 485.937 140.624 476.476 120.535C467.011 100.437 454.789 83.6265 447.621 75.8762L447.254 76.2157ZM488.3 185.002L487.808 184.911C483.973 205.617 473.2 217.151 462.05 223.42C450.877 229.702 439.301 230.708 433.902 230.296L433.864 230.795L433.826 231.293C439.39 231.717 451.169 230.685 462.54 224.291C473.936 217.884 484.899 206.104 488.792 185.093L488.3 185.002ZM433.864 230.795L433.902 230.296C433.322 230.252 425.65 230.938 414.194 227.979C402.755 225.025 387.593 218.437 372.253 203.853L371.908 204.216L371.564 204.578C387.04 219.291 402.358 225.955 413.944 228.947C419.735 230.443 424.592 231.02 428.067 231.229C429.804 231.333 431.196 231.345 432.186 231.332C432.68 231.326 433.074 231.315 433.359 231.305C433.502 231.301 433.614 231.297 433.698 231.295C433.741 231.294 433.773 231.293 433.797 231.293C433.825 231.293 433.831 231.294 433.826 231.293L433.864 230.795ZM371.908 204.216L372.253 203.853C364.524 196.506 357.53 191.464 350.422 188.463C343.304 185.459 336.098 184.512 327.965 185.314C311.75 186.914 291.794 195.484 261.414 208.565L261.612 209.024L261.81 209.483C292.258 196.372 312.041 187.89 328.063 186.309C336.049 185.521 343.085 186.452 350.033 189.385C356.989 192.321 363.883 197.276 371.564 204.578L371.908 204.216ZM387.196 173.32L386.938 173.748C402.342 183.022 413.879 185.977 422.439 184.711C431.042 183.438 436.529 177.921 439.852 170.553C443.167 163.203 444.35 153.974 444.367 145.14C444.385 136.298 443.234 127.805 441.846 121.897L441.359 122.011L440.873 122.126C442.243 127.959 443.385 136.375 443.367 145.138C443.35 153.907 442.173 162.975 438.94 170.142C435.716 177.292 430.47 182.512 422.292 183.721C414.072 184.937 402.782 182.12 387.454 172.892L387.196 173.32Z" fill="#F2545B"/>
<path d="M338.148 323.112C336.133 301.239 323.852 286.112 288.148 254.612C314.34 315.44 322.253 334.091 292.956 364.908C263.66 395.725 266.453 425.867 266.377 426.864C265.542 437.827 270.453 473.572 312.17 481.3C353.886 489.028 405.535 454.517 420.956 440.254C434.925 427.334 422.614 416.183 412.289 419.879C395.929 425.736 398.643 428.842 375.16 434.359C351.678 439.876 286.849 441.661 323.852 380.196C339.187 351.718 339.753 340.538 338.148 323.112Z" fill="#F2545B"/>
<path d="M288.148 254.612L288.479 254.237C288.303 254.082 288.044 254.07 287.854 254.207C287.665 254.344 287.596 254.595 287.689 254.81L288.148 254.612ZM338.148 323.112L337.65 323.158L337.65 323.158L338.148 323.112ZM323.852 380.196L324.28 380.454L324.286 380.443L324.292 380.433L323.852 380.196ZM375.16 434.359L375.046 433.873L375.046 433.873L375.16 434.359ZM412.289 419.879L412.121 419.408L412.121 419.408L412.289 419.879ZM420.956 440.254L420.617 439.887L420.617 439.887L420.956 440.254ZM312.17 481.3L312.261 480.808L312.17 481.3ZM266.377 426.864L266.876 426.902L266.876 426.902L266.377 426.864ZM292.956 364.908L293.319 365.252L293.319 365.252L292.956 364.908ZM288.148 254.612L287.817 254.987C323.536 286.5 335.656 301.506 337.65 323.158L338.148 323.112L338.646 323.066C336.611 300.971 324.167 285.724 288.479 254.237L288.148 254.612ZM338.148 323.112L337.65 323.158C338.451 331.854 338.705 338.945 336.864 347.403C335.02 355.87 331.07 365.738 323.411 379.959L323.852 380.196L324.292 380.433C331.969 366.176 335.969 356.215 337.841 347.616C339.715 339.008 339.45 331.796 338.646 323.066L338.148 323.112ZM375.16 434.359L375.275 434.846C387.045 432.08 392.277 429.913 396.623 427.692C400.951 425.48 404.318 423.264 412.458 420.35L412.289 419.879L412.121 419.408C403.901 422.351 400.444 424.616 396.168 426.801C391.91 428.977 386.758 431.121 375.046 433.873L375.16 434.359ZM412.289 419.879L412.458 420.35C417.423 418.572 422.833 420.38 425.316 424.113C426.551 425.968 427.078 428.317 426.46 430.988C425.84 433.667 424.059 436.704 420.617 439.887L420.956 440.254L421.296 440.621C424.838 437.345 426.756 434.142 427.434 431.213C428.114 428.275 427.537 425.644 426.149 423.559C423.388 419.41 417.48 417.49 412.121 419.408L412.289 419.879ZM420.956 440.254L420.617 439.887C412.945 446.982 396.221 459.147 376.211 468.571C356.19 478 332.965 484.644 312.261 480.808L312.17 481.3L312.079 481.792C333.091 485.684 356.548 478.937 376.637 469.476C396.735 460.011 413.545 447.789 421.296 440.621L420.956 440.254ZM312.17 481.3L312.261 480.808C291.555 476.973 280.021 466.2 273.752 455.05C267.47 443.877 266.464 432.301 266.876 426.902L266.377 426.864L265.878 426.826C265.455 432.39 266.487 444.169 272.881 455.54C279.288 466.936 291.068 477.899 312.079 481.792L312.17 481.3ZM266.377 426.864L266.876 426.902C266.92 426.322 266.234 418.65 269.193 407.194C272.147 395.755 278.735 380.593 293.319 365.252L292.956 364.908L292.594 364.563C277.881 380.04 271.217 395.358 268.225 406.944C266.729 412.735 266.151 417.592 265.943 421.066C265.839 422.804 265.827 424.196 265.839 425.186C265.845 425.68 265.857 426.074 265.866 426.359C265.871 426.502 265.875 426.614 265.877 426.698C265.878 426.741 265.878 426.773 265.879 426.797C265.879 426.825 265.878 426.831 265.878 426.826L266.377 426.864ZM292.956 364.908L293.319 365.252C300.665 357.524 305.707 350.53 308.708 343.422C311.713 336.304 312.66 329.098 311.858 320.965C310.258 304.75 301.688 284.794 288.607 254.414L288.148 254.612L287.689 254.81C300.799 285.258 309.282 305.041 310.863 321.063C311.65 329.049 310.72 336.085 307.787 343.033C304.85 349.989 299.895 356.883 292.594 364.563L292.956 364.908ZM323.852 380.196L323.423 379.938C314.15 395.342 311.195 406.879 312.461 415.439C313.734 424.042 319.25 429.529 326.618 432.852C333.969 436.167 343.198 437.35 352.032 437.367C360.873 437.385 369.367 436.234 375.275 434.846L375.16 434.359L375.046 433.873C369.213 435.243 360.797 436.385 352.034 436.367C343.265 436.35 334.196 435.173 327.029 431.94C319.88 428.716 314.66 423.47 313.45 415.292C312.234 407.072 315.052 395.782 324.28 380.454L323.852 380.196Z" fill="#F2545B"/>
<path d="M294.133 71.5719C287.351 66.9614 263.188 56.3594 250.592 55.0955C257.334 67.5551 262.103 101 227.242 135.102C239.75 126.353 272.967 115.557 291.546 104.28C299.767 99.2893 310.104 84.2576 294.133 71.5719Z" fill="#F2545B" stroke="#F2545B" stroke-linejoin="round"/>
<path d="M424.428 292.133C429.039 285.351 439.641 261.188 440.905 248.592C428.445 255.334 395 260.103 360.898 225.242C369.647 237.75 380.443 270.967 391.72 289.546C396.711 297.767 411.742 308.104 424.428 292.133Z" fill="#F2545B" stroke="#F2545B" stroke-linejoin="round"/>
<path d="M203.867 422.428C210.649 427.039 234.812 437.641 247.408 438.905C240.666 426.445 235.897 393 270.758 358.898C258.25 367.647 225.033 378.443 206.454 389.72C198.233 394.711 187.896 409.742 203.867 422.428Z" fill="#F2545B" stroke="#F2545B" stroke-linejoin="round"/>
<path d="M73.5719 201.867C68.9614 208.649 58.3594 232.812 57.0955 245.408C69.5551 238.666 103 233.897 137.102 268.758C128.353 256.25 117.557 223.033 106.28 204.454C101.289 196.233 86.2576 185.896 73.5719 201.867Z" fill="#F2545B" stroke="#F2545B" stroke-linejoin="round"/>
<path d="M266 247.5C249 265 266 247.5 249 265C232 247.5 249 265 232 247.5C249 230 232 247.5 249 230C266 247.5 249 230 266 247.5Z" fill="#F2545B"/>
</g>
<defs>
<clipPath id="clip0_85_19">
<rect width="498" height="497" fill="white"/>
</clipPath>
</defs>
</svg>
