<svg width="933" height="1200" viewBox="0 0 933 1200" fill="none" xmlns="http://www.w3.org/2000/svg">
<g id="bitmoji face" clip-path="url(#clip0_183_40)">
<g id="face">
<path id="skin color" d="M388.57 1184.94L436.57 1199.62L552.57 1187.98L670.07 1108.48L771.57 997.596L810.07 873.039L838.57 861.9L868.07 833.546L920.57 711.52L908.57 604.179L865.07 584.938L764.57 290.255L524.07 283.166L126.07 369.242L81.0703 580.381L36.5703 590.508L17.0703 619.369L12.0703 716.584L48.5703 806.204L87.0703 857.343L121.07 865.445L145.07 960.634L190.07 1033.55L281.57 1113.04L388.57 1184.94Z" fill="#E9BE99" stroke="black"/>
<path id="faceline" d="M479.037 1.95092C472.37 2.89607 466.504 4.38141 465.837 5.05651C463.704 7.21685 465.837 10.3223 471.17 13.2928L476.237 16.1281L468.903 15.1831C464.903 14.643 450.77 14.3729 437.57 14.3729C378.37 14.5079 308.37 31.3856 244.637 60.9552C205.97 78.913 129.97 133.056 96.1035 166.812C60.1035 202.457 30.3702 255.386 19.5702 302.508C15.1702 321.951 17.5701 324.651 28.9035 313.04C32.6368 309.394 35.5702 306.829 35.5702 307.504C35.5702 308.044 33.5702 318.846 31.0368 331.537C19.4368 389.327 19.4368 409.31 30.9035 460.213C33.5702 471.689 40.1035 501.124 45.5702 525.698C51.0368 550.137 56.1035 571.875 56.7702 573.765C57.9702 577.411 57.9702 577.411 50.2368 577.951C33.7035 579.166 14.9035 593.343 9.03682 609.141C1.83682 628.854 -1.49652 660.449 0.636817 689.343C4.10348 736.466 17.8368 775.352 48.2368 824.635C61.4368 846.103 70.9035 857.445 80.9035 863.926C88.1035 868.651 101.57 873.377 107.57 873.377C111.17 873.377 111.437 873.917 112.903 881.208C123.303 935.352 142.237 986.66 164.103 1019.61C192.637 1062.81 226.237 1092.92 324.904 1164.35C347.437 1180.55 360.637 1189.19 372.237 1194.86C398.77 1207.96 425.837 1213.63 462.104 1213.63C505.57 1213.63 541.837 1205.8 571.304 1190C587.704 1181.09 665.17 1124.11 697.304 1097.24C719.837 1078.34 750.504 1046.74 760.904 1031.76C787.037 993.951 803.837 953.04 816.104 896.196C818.504 885.124 820.77 875.808 821.037 875.402C821.437 875.132 825.57 874.187 830.237 873.512C851.17 870.137 865.17 858.255 884.237 828.145C900.637 802.221 908.904 784.803 917.437 758.474C929.57 721.073 930.904 712.297 930.904 673.546C930.77 641.951 930.637 639.791 927.17 625.613C922.37 606.305 919.704 600.905 910.37 592.128C901.17 583.622 892.37 579.031 882.904 578.086L876.237 577.411L878.504 554.187C879.837 541.495 883.57 508.01 887.037 479.791C890.37 451.571 893.437 419.706 893.837 408.905C894.504 394.322 895.037 390.272 895.837 392.972C897.704 398.508 900.504 397.563 902.504 390.947C905.437 380.82 904.637 337.343 901.037 313.715C896.104 281.445 889.837 264.837 871.57 236.348C864.104 224.466 863.837 223.926 867.704 226.221C869.97 227.571 876.77 232.432 882.904 237.023C889.037 241.748 894.37 245.529 894.904 245.529C896.637 245.529 894.237 225.546 891.57 216.77C884.37 193.546 861.837 170.052 828.77 151.554C815.437 143.993 790.104 132.786 781.57 130.626C778.37 129.816 775.837 128.601 776.237 128.196C777.17 126.44 773.437 112.803 770.237 106.457C759.57 85.124 739.304 65.816 714.504 53.259C703.17 47.4531 689.17 43.5374 687.304 45.4277C686.504 46.2379 688.237 50.1535 692.104 56.2295C695.57 61.4953 699.437 68.5163 700.77 71.7568C703.57 78.3729 708.237 98.0859 707.17 99.1661C706.904 99.5712 703.437 95.9256 699.704 91.0648C684.504 71.7568 644.637 41.5121 613.037 25.5797C591.57 14.6429 561.037 5.46154 532.237 1.14087C519.303 -0.614409 493.303 -0.344441 479.037 1.95092ZM677.037 325.867C672.77 337.748 669.437 347.875 669.837 348.415C672.637 353.276 692.237 340.179 717.304 316.82C724.504 310.069 730.637 304.803 730.904 305.073C731.037 305.343 733.17 317.9 735.437 332.888C745.57 398.508 757.304 430.913 782.77 463.588C785.97 467.774 802.904 513.411 807.437 530.559C815.17 559.183 817.437 586.052 815.704 625.613C814.904 642.626 813.57 673.006 812.904 693.124C807.437 834.491 791.57 927.656 762.77 985.85C742.637 1026.36 702.104 1068.48 634.904 1118.71C568.504 1168.13 548.103 1179.88 516.237 1186.63C465.437 1197.43 409.304 1190.95 373.17 1170.15C354.104 1159.08 293.17 1115.2 263.703 1091.3C191.703 1032.7 164.237 992.061 144.237 914.559C133.303 872.162 127.17 831.386 120.103 753.883C113.703 682.187 113.303 667.2 116.77 616.162C121.437 548.246 122.637 539.335 132.237 497.343C135.57 483.166 140.237 461.968 142.77 449.951C145.17 438.069 149.57 421.056 152.237 412.145L157.17 396.078L160.37 407.284C165.304 424.702 174.37 440.364 178.103 437.934C178.77 437.529 180.637 433.073 182.37 428.078C186.237 416.196 193.57 400.398 202.103 385.276C208.637 373.934 209.037 373.529 208.37 378.525C205.037 404.179 204.503 413.09 205.97 417.951C206.903 421.056 207.17 426.997 206.637 432.803C206.104 439.689 206.37 442.66 207.303 442.66C208.103 442.66 211.97 439.959 215.837 436.584C240.37 415.656 261.303 402.694 315.57 375.419C338.637 363.808 358.104 353.951 358.904 353.681C359.57 353.411 354.637 359.082 347.97 366.508C330.37 385.816 319.437 399.453 320.237 400.938C320.77 401.613 325.837 402.154 331.57 402.154C373.17 402.154 462.237 378.66 507.97 355.571L522.37 348.28L515.037 356.651C499.57 373.934 487.304 389.867 488.237 391.487C490.77 395.402 543.437 383.251 570.904 372.179C601.837 359.757 645.57 334.508 671.57 313.985C678.504 308.449 684.37 303.993 684.504 304.128C684.637 304.263 681.304 314.12 677.037 325.867ZM74.9035 614.407C80.3702 625.613 82.5035 631.689 84.2368 641.816C85.5702 648.972 86.3702 655.048 85.9702 655.318C85.7035 655.588 81.7035 650.997 76.9035 644.921C72.2368 638.981 65.7035 632.229 62.3702 630.069C57.1702 626.694 55.1702 626.154 49.3035 626.694C42.7702 627.099 36.9035 630.339 36.9035 633.31C36.9035 633.85 40.3702 634.39 44.7702 634.39C51.9702 634.39 53.0368 634.795 58.6368 639.926L64.7702 645.327L61.0368 652.348C56.1035 661.259 50.6368 677.867 48.1035 690.694C45.9702 702.17 45.5702 720.263 47.5702 721.478C49.8368 722.829 53.0368 715.808 54.3702 706.761C55.0368 701.9 56.1035 694.069 56.7702 689.343C57.4368 684.753 59.8368 673.546 62.2368 664.5L66.5035 648.027L72.2368 655.858C77.3035 662.879 80.6368 666.12 86.6368 670.17C88.2368 671.251 88.9035 676.921 90.1035 696.5C91.8368 725.529 96.3702 769.546 102.37 816.938C104.77 835.436 106.37 850.694 106.103 851.099C105.703 851.369 103.037 850.964 100.103 850.019C92.7702 847.858 84.5035 838.947 72.6368 820.719C51.1702 787.504 44.5035 775.082 37.8368 755.234C25.0368 716.618 21.5702 688.263 24.6368 647.892C27.5702 611.571 35.0368 599.284 54.5035 599.284C58.3702 599.284 62.5035 598.744 63.5702 597.934C65.9702 596.449 65.9702 596.449 74.9035 614.407ZM890.237 601.985C898.504 605.495 905.837 624.938 907.704 647.892C910.237 681.782 908.504 703.656 900.77 733.765C891.97 768.331 883.437 787.504 862.104 820.044C846.904 843.538 837.837 851.774 827.57 851.774C824.104 851.774 823.57 851.369 824.237 848.668C827.437 834.626 837.57 735.251 838.904 705.276C840.37 672.601 840.504 671.656 845.17 669.63C847.437 668.55 851.837 663.959 855.304 659.234C858.637 654.508 861.837 650.997 862.37 651.537C865.304 654.913 874.237 697.985 874.237 709.327C874.37 728.365 880.637 725.664 881.837 706.086C882.637 693.664 878.37 675.571 871.037 658.829C868.37 653.023 866.237 647.352 866.237 646.272C866.237 644.111 872.104 638.17 876.504 635.875C878.104 635.065 882.104 634.39 885.437 634.39C892.237 634.39 893.17 632.905 888.637 629.799C879.437 623.183 869.437 626.964 855.57 642.221C850.504 647.892 846.237 652.888 846.237 653.563C846.237 654.103 845.704 654.643 845.037 654.643C843.304 654.643 858.77 617.377 863.837 609.546C866.37 605.765 868.77 601.715 869.17 600.5C869.837 598.744 871.304 598.609 878.104 599.419C882.637 599.959 888.104 601.04 890.237 601.985Z" fill="black"/>
<path id="left-eyebrow" d="M235.837 510.306C215.837 512.871 200.37 521.647 182.77 540.01C169.17 554.322 155.57 576.871 155.57 585.107C155.57 588.348 158.237 587.538 173.57 579.706C202.904 564.719 221.837 560.938 265.57 560.938C302.504 560.938 320.37 562.829 359.704 571.065C385.704 576.331 393.437 577.276 396.77 575.116C400.104 572.955 397.97 556.078 392.904 545.816C385.97 531.504 375.17 524.483 349.837 518.137C320.37 510.711 262.904 506.66 235.837 510.306Z" fill="black"/>
<path id="right-eyebrow" d="M634.904 510.306C602.637 512.871 583.704 516.517 564.904 523.268C546.637 529.884 535.437 544.736 533.437 565.394C531.97 578.491 531.57 578.491 572.904 569.715C604.504 562.964 625.304 560.939 663.57 560.939C710.37 560.939 724.637 563.774 757.304 579.436C766.637 583.892 774.637 587.133 775.17 586.593C777.037 584.702 771.037 570.255 763.437 558.913C753.97 544.466 733.837 524.618 722.504 518.542C709.97 511.791 700.504 510.036 673.57 509.495C660.37 509.225 643.037 509.631 634.904 510.306Z" fill="black"/>
<path id="noseline" d="M421.704 636.01C421.304 639.251 420.637 654.238 420.237 669.496C419.304 700.415 417.037 724.314 412.904 744.297C408.237 767.251 410.104 770.221 418.637 753.074C429.304 731.74 434.504 686.103 429.704 654.913C426.237 631.69 423.17 624.398 421.704 636.01Z" fill="black"/>
<path id="nose" d="M534.237 807.082C534.237 807.622 536.37 814.508 538.904 822.339C544.504 839.622 545.704 848.938 543.304 857.175C541.037 864.736 538.77 865.951 519.57 869.597C506.904 872.027 503.304 873.242 493.304 879.318L481.57 886.204H466.904C453.304 886.204 451.704 885.934 445.57 882.424C430.504 874.052 424.104 871.622 409.837 869.191C393.704 866.356 389.437 864.331 388.104 859.065C386.637 852.989 388.37 835.166 391.57 824.364C393.304 818.694 394.237 813.563 393.704 813.023C393.304 812.483 390.77 813.158 388.37 814.373C384.904 815.993 382.77 818.559 379.837 825.04C371.97 842.052 370.77 857.85 376.637 869.327C382.237 880.668 387.037 883.639 405.57 887.554C416.237 889.715 425.037 892.685 432.37 896.196C447.037 903.352 455.17 904.972 471.17 904.027C485.57 903.352 492.504 901.191 503.57 894.44C509.17 890.93 513.037 889.715 520.237 889.04C533.037 887.689 537.97 886.204 545.037 881.613C560.104 872.027 563.57 845.968 552.77 824.635C547.837 814.643 534.237 801.816 534.237 807.082Z" fill="black"/>
<path id="mouth" d="M313.437 945.074C311.037 945.749 307.304 948.044 305.037 950.204C301.437 953.58 300.904 955.065 300.904 960.871C300.904 968.837 302.237 970.187 307.57 967.892C311.037 966.407 312.637 966.812 321.17 970.322C361.037 986.93 403.037 995.571 451.57 997.192C506.104 998.812 554.904 990.981 603.17 972.753C617.57 967.352 619.97 966.812 623.704 968.162C628.77 969.917 630.237 968.297 630.237 960.331C630.237 953.985 626.104 949.124 617.97 945.749C611.304 942.913 610.77 942.913 609.17 947.504C608.37 949.664 606.237 952.5 604.504 953.715C593.704 960.871 555.57 971.403 523.304 976.263C496.237 980.314 433.037 980.719 409.437 977.074C374.637 971.673 333.704 960.466 326.504 954.39C324.77 952.905 322.904 950.069 322.37 948.044C321.304 943.858 319.437 943.183 313.437 945.074Z" fill="black"/>
<path id="chin" d="M524.904 1028.79C510.237 1034.05 494.904 1035.94 467.57 1035.94C444.77 1035.94 439.17 1035.54 421.704 1032.3C410.77 1030.14 399.97 1028.65 397.704 1028.92L393.57 1029.33L397.97 1033.65C411.304 1046.74 441.17 1054.04 474.904 1052.55C484.504 1052.14 496.77 1050.79 502.237 1049.58C515.17 1046.74 529.837 1038.91 533.837 1032.84C539.037 1025.01 537.57 1024.47 524.904 1028.79Z" fill="black"/>
</g>
<g id="left eye">
<path id="whitebg" d="M253.07 616.126L201.07 645.126L191.57 656.626L210.07 673.126L253.07 690.126H318.07L353.57 681.626L381.57 665.126L375.57 648.626L337.57 617.626L253.07 616.126Z" fill="white"/>
<path id="eyeball" d="M323.07 614.126C339.57 616.626 340.569 617.233 352.569 629.126C356.972 635.157 358.07 631.127 359.57 650.626C359.57 661.833 354.52 671.861 346.57 678.556C340.221 683.904 338.57 687.126 323.07 687.126C310.296 687.126 301.022 679.882 292.532 670.626C286.57 664.127 286.57 658.01 286.57 650.626C286.57 640.704 289.57 637.126 296.955 625.126C303.583 618.34 312.835 614.126 323.07 614.126ZM324.364 642.496C322.967 641.635 321.053 642.307 320.638 644.217C320.222 646.127 321.803 647.374 323.2 647.084C324.934 646.725 325.297 646.226 325.529 645.079C325.67 644.383 325.488 643.188 324.364 642.496ZM341.471 630.086C336.719 627.848 330.212 629.597 328.8 634.563C327.387 639.529 332.76 642.77 337.511 642.018C343.408 641.084 344.638 639.786 345.43 636.801C345.909 634.992 345.292 631.886 341.471 630.086Z" fill="black"/>
<path id="eyeline" d="M279.237 606.912C297.371 605.312 319.77 606.245 333.104 608.912C354.57 613.178 372.837 625.845 384.437 644.645C392.303 657.045 393.237 661.445 388.971 665.445C379.904 673.978 352.837 685.845 333.237 689.978C282.171 700.378 244.703 696.512 209.903 677.045C198.837 670.779 182.571 656.112 182.57 652.378C182.57 647.845 190.303 639.045 200.17 632.378C223.77 616.378 244.571 609.712 279.237 606.912ZM333.97 627.527C333.869 627.485 294.515 611.145 251.304 625.66C250.637 625.126 234.77 631.526 225.304 636.193C220.104 638.86 212.503 643.66 208.637 646.86C204.77 650.06 200.503 653.26 199.17 653.926C197.037 655.126 197.304 655.793 201.837 661.126C207.704 667.926 219.703 675.926 229.437 679.66C236.903 682.46 251.437 685.66 263.57 687.126L270.903 688.06L304.104 688.726C307.07 689.126 332.37 686.193 340.37 683.66C351.97 680.06 364.503 674.326 371.17 669.259L376.903 665.126L372.637 658.193C370.237 654.326 365.57 648.326 362.104 644.993C358.637 641.659 350.903 636.326 344.903 633.259L333.97 627.527Z" fill="black"/>
</g>
<g id="right eye">
<path id="whitebg_2" d="M584.57 619.126L552.57 655.126L549.07 664.626L566.57 678.126L606.07 689.126L637.07 692.126L680.07 690.126L722.07 672.626L740.57 653.626L698.57 623.626L645.07 611.626L584.57 619.126Z" fill="white"/>
<path id="eyeball_2" d="M688.07 615.126C704.57 617.626 705.569 618.233 717.569 630.126C721.972 636.157 723.07 632.127 724.57 651.626C724.57 662.833 719.52 672.861 711.57 679.556C705.221 684.904 703.57 688.126 688.07 688.126C675.296 688.126 666.022 680.882 657.532 671.626C651.57 665.127 651.57 659.01 651.57 651.626C651.57 641.704 654.57 638.126 661.955 626.126C668.583 619.34 677.835 615.126 688.07 615.126ZM687.104 631.713C682.304 627.98 679.104 628.246 674.438 632.78C670.037 637.313 669.238 643.447 672.838 646.914C675.638 649.713 684.17 648.913 688.037 645.447C691.904 641.98 691.371 635.047 687.104 631.713Z" fill="black"/>
<path id="eyeline_2" d="M612.237 606.593C633.704 604.193 670.637 606.993 690.103 612.726C716.77 620.326 748.903 642.46 748.903 653.127C748.903 656.06 736.77 667.527 726.903 673.794C700.103 690.993 670.504 697.526 633.171 694.46C596.771 691.66 568.637 683.794 550.504 671.794C540.237 664.861 537.703 662.06 538.637 658.06C539.97 652.994 549.304 639.526 557.971 630.193C569.971 617.393 588.904 609.127 612.237 606.593ZM682.237 626.994C645.57 614.127 612.359 619.616 597.837 626.994C597.037 626.194 584.371 631.927 577.971 636.327C564.904 644.993 552.637 660.327 554.637 665.527C555.97 668.86 572.77 678.06 585.57 682.327C598.503 686.593 611.437 689.127 620.903 689.127H626.903L657.57 687.926L668.237 687.127C692.904 685.527 720.637 673.127 730.77 659.393L733.57 655.527L728.903 651.527C721.17 644.86 706.503 635.661 697.837 632.194C689.571 628.728 683.858 627.562 682.237 626.994Z" fill="black"/>
</g>
</g>
<defs>
<clipPath id="clip0_183_40">
<rect width="933" height="1200" fill="white"/>
</clipPath>
</defs>
</svg>
