<svg width="1137" height="859" viewBox="0 0 1137 859" fill="none" xmlns="http://www.w3.org/2000/svg">
<g clip-path="url(#clip0_120_33)">
<path d="M-107.336 -225.941C-25.8484 -243.436 48.2514 -228.303 114.212 -178.732L115.768 -177.554C172.211 -134.587 205.958 -77.1831 217.317 -7.25049L217.582 -5.59619C220.088 10.3755 221.073 27.0548 219.342 42.9507L219.167 44.4868C216.541 66.2979 195.541 81.6029 172.88 80.7192L171.799 80.6646C149.048 79.262 130.517 62.1455 128.902 39.9976L128.838 38.939C127.577 12.781 123.854 -12.8044 112.952 -37.1411L112.427 -38.2993C80.6338 -107.699 9.10732 -147.493 -68.5794 -139.154L-70.4163 -138.948C-142.152 -130.557 -203.97 -72.4465 -218.487 -0.172363L-218.821 1.5376C-237.458 99.6604 -170.524 193.817 -72.0071 207.647L-70.847 207.806C-61.6461 209.036 -52.3759 209.537 -43.1888 209.962C-34.5463 210.363 -25.9944 210.696 -17.5042 211.49L-15.8069 211.655C41.6471 217.466 92.8649 238.768 137.451 275.085L139.569 276.827C196.322 323.884 231.808 383.879 242.971 456.552L243.23 458.271C256.844 550.304 232.494 631.933 170.27 701.013L168.794 702.643C119.293 756.921 57.1843 787.805 -15.7015 795.823L-17.4251 796.008C-166.244 811.608 -304.462 709.834 -334.353 562.968L-334.7 561.239C-338.06 544.203 -339.457 526.606 -340.202 509.06L-340.343 505.551C-341.337 479.326 -322.303 459.115 -296.758 457.487L-295.536 457.423C-271.274 456.449 -250.421 474.66 -248.522 499.922L-248.446 501.131C-247.136 526.931 -244.367 552.633 -234.138 576.902L-233.645 578.056C-203.062 648.832 -149.951 692.172 -73.5267 702.68L-71.7171 702.922C31.9568 716.411 126.714 648.761 149.653 547.66L150.181 545.265C172.757 440.043 106.195 333.45 1.76044 308.536L0.529968 308.247C-15.6997 304.485 -32.6534 303.033 -49.2679 302.559L-52.5862 302.476C-157.108 300.269 -253.584 234.677 -293.578 138.191L-294.513 135.906C-351.178 -4.6214 -282.282 -162.016 -140.742 -215.847L-139.074 -216.475C-128.978 -220.241 -118.528 -222.674 -107.336 -225.941Z" stroke="#2B2B2B" stroke-width="5"/>
<path d="M495.354 119.614C555.971 72.5396 624.599 48.6186 701.025 50.6816L702.831 50.7354C802.701 53.9609 884.15 95.657 947.752 173.424C1000.48 241.6 1023.48 318.188 1015.92 403.271L1015.73 405.283C1002.76 542.82 899.803 658.658 765.558 688.312L763.977 688.656C600.409 723.897 438.685 630.596 387.059 471.541L386.456 469.667C346.328 343.521 389.954 202.309 494.126 120.573L495.354 119.614ZM918.041 317.962C884.061 182.662 741.176 108.869 610.917 158.932L609.385 159.526C501.848 201.692 441.767 320.653 472.008 431.794L472.369 433.101C491.17 500.577 532.739 549.527 595.921 581.461L595.961 581.481L596.002 581.5C640.397 601.973 686.634 608.429 734.771 600.03L737.064 599.619C865.998 575.891 949.463 446.693 918.411 319.458L918.041 317.962Z" stroke="#2B2B2B" stroke-width="5"/>
<path d="M935.893 728.161C948.479 713.636 968.047 708.298 985.988 714.43L986.842 714.729C1004.99 721.322 1017.03 737.815 1017.32 757.375L1017.32 758.309C1017.04 823.36 999.341 883.229 963.003 936.922L961.259 939.475C910.599 1012.86 841.394 1059.14 753.958 1075.27L751.89 1075.64C658.462 1092.32 573.374 1070.74 497.032 1013.19C433.072 962.472 393.012 897.647 377.622 818.151L377.264 816.271C373.974 798.788 372.628 780.742 372.142 762.788L372.056 759.198C371.493 732.416 391.942 712.117 417.694 711.954H418.304C443.748 712.107 463.529 731.518 464.291 757.836L464.313 759.095C464.887 857.433 526.749 938.917 608.365 971.529L610.297 972.291C733.203 1020.06 869.153 957.195 912.311 832.889L912.814 831.424C920.136 809.887 924.198 787.706 924.575 764.924L924.601 762.717C924.679 749.895 927.318 738.327 935.499 728.622L935.893 728.161Z" stroke="#2B2B2B" stroke-width="5"/>
</g>
<defs>
<clipPath id="clip0_120_33">
<rect width="1612" height="1494" fill="white" transform="translate(-475 -321)"/>
</clipPath>
</defs>
</svg>
