<svg width="1612" height="1494" viewBox="0 0 1612 1494" fill="none" xmlns="http://www.w3.org/2000/svg">
<g clip-path="url(#clip0_130_113)">
<path d="M367.05 92.6348C449.899 74.8251 525.304 90.4694 592.283 141.456C649.698 185.163 683.861 243.714 695.051 315.016C697.664 331.659 698.652 349.14 696.648 365.786C693.794 389.493 670.788 405.648 646.646 404.16C622.381 402.664 602.499 384.108 601.34 360.059C600.067 333.633 596.273 308.011 585.154 283.742C553.577 214.815 482.23 175.487 404.874 184.535C333.693 192.862 272.317 250.977 258.636 323.004C240.189 420.118 306.771 513.269 404.484 526.328C422.65 528.756 441.18 528.321 459.444 530.168C518.308 536.121 570.706 558.209 616.165 595.902C673.814 643.701 709.743 704.815 720.703 778.905C734.534 872.402 709.464 955.345 645.641 1025.33C595.326 1080.5 532.058 1111.71 457.835 1119.49C307.141 1135.29 167.251 1031.78 137.848 882.723C134.225 864.359 132.87 845.396 132.159 826.646C131.095 798.588 151.868 777.03 179.363 775.925C205.389 774.879 227.668 794.757 229.051 822.004C230.378 848.151 233.202 873.886 243.65 898.065C274.15 968.649 327.145 1011.49 403.606 1021.44C506.784 1034.87 601.03 966.915 622.737 865.741C645.119 761.424 578.762 655.737 474.966 631.682C457.892 627.725 439.949 626.347 422.361 625.976C316.024 623.731 217.955 556.51 178.169 457.841C120.755 315.457 191.069 155.898 335.052 102.182C345.284 98.3651 356.006 95.8623 367.05 92.6348Z" fill="white"/>
<path d="M1424.71 492.868C1478.25 562.078 1501.39 639.973 1493.22 726.518C1480.09 865.682 1375.58 982.781 1239.5 1012.1C1074.03 1047.75 910.425 952.847 859.075 791.425C818.47 663.784 862.938 520.868 968.821 438.64C1030.35 390.858 1100.14 366.725 1177.91 369.236C1278.54 372.487 1360.67 414.547 1424.71 492.868ZM1072.05 900.23C1116.69 920.818 1163.17 927.075 1211.61 918.16C1339.63 894.6 1422.34 765.889 1390.62 639.571C1356.87 505.208 1214.57 432.166 1085.3 482.854C978.525 524.72 919.052 643.159 949.777 753.43C968.38 820.196 1009.46 868.597 1072.05 900.23Z" fill="white"/>
<path d="M970.51 1336.18C905.569 1284.69 865.043 1218.71 849.807 1137.73C846.262 1118.9 844.96 1099.45 844.556 1080.25C843.959 1051.84 865.887 1030.29 893.319 1030.45C920.576 1030.62 941.647 1051.8 941.813 1080.08C942.385 1178.12 1004.54 1259.22 1086.2 1290.96C1208.27 1338.4 1343.31 1275.55 1385.45 1151.62C1392.92 1129.63 1396.96 1106.97 1397.1 1083.7C1397.18 1070.34 1399.98 1057.93 1409 1047.52C1422.46 1032 1443.54 1026.42 1462.7 1033.38C1482.11 1040.43 1494.92 1058.28 1494.82 1079.32C1494.53 1145.89 1476.13 1207.12 1438.32 1261.89C1386.89 1336.38 1316.43 1383.2 1227.33 1399.1C1133.18 1415.91 1047.39 1394.14 970.51 1336.18Z" fill="white"/>
</g>
<defs>
<clipPath id="clip0_130_113">
<rect width="1612" height="1494" fill="white"/>
</clipPath>
</defs>
</svg>
