<svg width="1612" height="1494" viewBox="0 0 1612 1494" fill="none" xmlns="http://www.w3.org/2000/svg">
<g clip-path="url(#clip0_181_29)">
<path d="M367.664 95.0591C449.793 77.4266 524.418 92.9373 590.768 143.446C647.656 186.751 681.489 244.722 692.582 315.404C695.169 331.891 696.136 349.132 694.167 365.487C691.499 387.644 669.87 403.087 646.8 401.665C623.687 400.24 604.929 382.598 603.838 359.939C602.557 333.366 598.735 307.383 587.427 282.701C555.383 212.755 482.978 172.882 404.584 182.052C332.284 190.509 270.058 249.472 256.179 322.538C237.469 421.045 305.002 515.555 404.153 528.806C413.354 530.036 422.624 530.537 431.811 530.962C441.03 531.39 450.146 531.74 459.193 532.655C517.559 538.558 569.489 560.449 614.569 597.827C671.769 645.254 707.365 705.824 718.23 779.271C731.952 872.029 707.108 954.219 643.794 1023.64C593.903 1078.35 531.206 1109.29 457.575 1117.01C308.172 1132.67 169.455 1030.03 140.301 882.239C136.716 864.067 135.366 845.257 134.657 826.551C133.647 799.91 153.307 779.474 179.464 778.423C204.111 777.433 225.24 796.243 226.554 822.131C227.885 848.34 230.722 874.448 241.355 899.056C272.179 970.389 325.887 1013.85 403.283 1023.92C507.773 1037.52 603.205 968.69 625.181 866.265C647.846 760.63 580.671 653.614 475.53 629.247C458.218 625.234 440.083 623.849 422.414 623.476C317.069 621.252 219.897 554.64 180.487 456.906C123.6 315.827 193.26 157.75 335.927 104.525C346.022 100.759 356.472 98.3265 367.664 95.0591Z" stroke="#2B2B2B" stroke-width="5"/>
<path d="M970.354 440.614C1031.45 393.169 1100.68 369.244 1177.83 371.735C1277.7 374.961 1359.15 416.657 1422.75 494.424C1475.9 563.136 1498.84 640.395 1490.73 726.283C1477.71 864.359 1373.99 980.566 1238.98 1009.66C1074.77 1045.04 912.417 950.863 861.457 790.667C821.17 664.026 865.297 522.201 970.354 440.614ZM1393.04 638.962C1358.93 503.131 1215.05 429.291 1084.39 480.526C976.427 522.858 916.297 642.587 947.369 754.101C966.17 821.577 1007.74 870.527 1070.92 902.461L1070.96 902.481L1071 902.5C1116.1 923.298 1163.1 929.63 1212.06 920.619C1341.5 896.798 1425.12 766.679 1393.04 638.962Z" stroke="#2B2B2B" stroke-width="5"/>
<path d="M1410.89 1049.16C1423.68 1034.41 1443.67 1029.13 1461.84 1035.73C1480.28 1042.43 1492.41 1059.34 1492.32 1079.31C1492.03 1145.39 1473.78 1206.13 1436.26 1260.47C1385.2 1334.44 1315.3 1380.86 1226.89 1396.64C1133.46 1413.32 1048.37 1391.74 972.032 1334.19C907.568 1283.07 867.384 1217.63 852.264 1137.27C848.755 1118.62 847.458 1099.33 847.056 1080.2C846.488 1053.21 867.266 1032.8 893.304 1032.95C919.152 1033.11 939.155 1053.14 939.312 1080.09C939.891 1179.21 1002.73 1261.2 1085.3 1293.29C1208.69 1341.25 1345.22 1277.7 1387.81 1152.42C1395.37 1130.19 1399.46 1107.27 1399.6 1083.72C1399.68 1070.69 1402.4 1058.96 1410.89 1049.16Z" stroke="#2B2B2B" stroke-width="5"/>
</g>
<defs>
<clipPath id="clip0_181_29">
<rect width="1612" height="1494" fill="white"/>
</clipPath>
</defs>
</svg>
