<?xml version="1.0" standalone="no"?>
   <!DOCTYPE svg PUBLIC "-//W3C//DTD SVG 1.1//EN" 
   "http://www.w3.org/Graphics/SVG/1.1/DTD/svg11.dtd"><svg id="svg" version="1.1" width="639" height="876" xmlns="http://www.w3.org/2000/svg"><path d="M195.580 89.250 C 134.818 132.732,98.860 166.414,99.081 179.642 C 99.164 184.630,110.959 201.246,142.500 240.810 C 168.069 272.883,206.421 327.782,220.500 352.463 C 228.417 366.343,234.596 373.800,238.659 374.381 C 242.385 374.914,253.567 368.809,266.955 358.934 L 289.091 342.606 297.545 354.277 C 302.195 360.696,305.946 366.972,305.880 368.224 C 305.814 369.476,298.854 375.900,290.415 382.500 C 281.976 389.100,262.298 405.638,246.687 419.250 C 231.076 432.863,217.447 443.999,216.402 443.998 C 215.356 443.998,207.436 441.312,198.803 438.031 C 179.657 430.754,154.622 427.800,142.500 431.387 C 133.980 433.908,133.520 434.850,133.876 449.038 C 134.083 457.282,138.585 481.334,143.880 502.488 C 154.715 545.777,153.762 553.091,136.715 557.476 C 129.191 559.411,127.329 561.585,126.568 569.320 C 125.765 577.475,126.776 579.080,133.824 580.849 C 140.160 582.440,143.199 581.439,147.257 576.427 C 150.142 572.864,156.327 569.241,161.001 568.375 C 168.375 567.008,170.684 568.501,178.437 579.650 C 199.447 609.860,241.299 648.000,253.440 648.000 C 259.295 648.000,261.618 645.184,266.439 632.250 C 275.193 608.761,288.000 567.289,288.000 562.429 C 288.000 560.085,295.088 555.137,303.750 551.435 C 312.413 547.732,332.748 538.244,348.939 530.351 C 365.131 522.458,378.767 516.000,379.241 516.000 C 382.164 516.000,398.861 547.305,396.904 549.116 C 395.582 550.339,384.375 555.680,372.000 560.984 C 359.625 566.288,347.609 572.426,345.298 574.623 C 340.553 579.135,342.684 585.030,369.662 642.000 C 398.317 702.511,417.866 748.080,430.370 783.514 C 437.918 804.902,440.257 805.741,464.013 795.574 C 475.281 790.752,494.625 781.202,507.000 774.352 C 519.375 767.502,541.209 755.884,555.520 748.534 C 569.831 741.184,582.346 733.867,583.331 732.273 C 585.655 728.512,560.027 679.584,528.919 628.393 C 526.949 625.152,517.617 609.675,508.181 594.000 C 478.620 544.894,464.933 525.000,460.710 525.000 C 458.465 525.000,446.901 529.139,435.012 534.198 C 423.124 539.257,413.024 542.970,412.568 542.448 C 412.113 541.927,407.494 533.914,402.304 524.641 L 392.869 507.782 401.304 504.288 C 405.944 502.366,417.465 495.664,426.907 489.394 C 474.305 457.918,493.186 408.670,475.512 362.613 C 474.387 359.681,477.815 355.961,485.753 351.499 L 497.685 344.793 510.225 358.396 C 517.121 365.878,523.804 372.000,525.075 372.000 C 526.346 372.000,539.674 364.442,554.693 355.204 C 571.821 344.669,582.000 336.506,582.000 333.305 C 582.000 327.230,561.752 299.530,539.053 274.550 L 522.742 256.601 499.570 277.340 C 486.825 288.746,475.715 299.857,474.881 302.031 C 474.047 304.205,477.701 312.742,483.002 321.002 L 492.639 336.021 485.569 341.926 C 473.757 351.793,468.167 352.266,459.468 344.134 C 445.670 331.235,433.771 327.000,411.328 327.000 C 387.728 327.000,356.961 336.542,332.979 351.298 C 325.200 356.084,318.107 360.000,317.215 360.000 C 315.327 360.000,302.993 339.656,303.015 336.579 C 303.023 335.435,312.568 327.950,324.226 319.945 C 335.884 311.940,346.135 303.532,347.007 301.262 C 348.401 297.629,341.232 283.008,319.912 246.000 C 314.265 236.196,276.257 163.251,243.716 99.764 C 234.566 81.912,227.751 72.023,224.592 72.014 C 221.893 72.006,208.837 79.763,195.580 89.250 M246.000 132.149 C 246.000 133.671,238.661 139.707,221.434 152.356 C 216.724 155.815,215.090 154.043,205.591 135.181 C 199.766 123.614,195.000 112.251,195.000 109.930 C 195.000 107.609,201.369 101.567,209.153 96.504 L 223.305 87.298 234.653 108.862 C 240.894 120.722,246.000 131.202,246.000 132.149 M196.409 139.922 C 202.234 152.530,207.000 163.215,207.000 163.667 C 207.000 166.993,176.084 186.250,174.113 184.151 C 168.903 178.604,147.000 145.899,147.000 143.668 C 147.000 140.986,179.737 117.000,183.398 117.000 C 184.729 117.000,190.584 127.315,196.409 139.922 M265.680 166.274 C 272.154 178.525,276.788 189.064,275.976 189.695 C 257.303 204.210,249.348 210.000,248.078 210.000 C 247.220 210.000,241.111 200.621,234.502 189.158 L 222.486 168.316 235.676 156.158 C 242.930 149.471,250.000 144.000,251.387 144.000 C 252.773 144.000,259.205 154.023,265.680 166.274 M151.355 171.094 C 158.860 182.695,165.000 193.269,165.000 194.591 C 165.000 198.555,141.165 216.456,138.270 214.667 C 133.375 211.642,114.000 180.562,114.000 175.735 C 114.000 172.035,133.675 150.000,136.980 150.000 C 137.381 150.000,143.850 159.492,151.355 171.094 M224.974 197.946 C 230.547 209.467,234.521 219.354,233.804 219.918 C 233.087 220.482,227.914 224.114,222.309 227.990 L 212.117 235.037 200.632 221.769 C 185.992 204.856,184.324 199.676,191.279 192.721 C 197.805 186.195,210.561 177.000,213.088 177.000 C 214.052 177.000,219.401 186.426,224.974 197.946 M295.471 221.051 L 306.493 241.103 299.496 246.636 C 282.219 260.299,276.324 263.951,275.009 261.804 C 267.775 249.997,254.660 224.356,255.472 223.604 C 260.383 219.052,282.775 201.000,283.509 201.000 C 284.026 201.000,289.409 210.023,295.471 221.051 M187.075 223.454 C 193.084 232.503,198.000 241.019,198.000 242.376 C 198.000 243.734,192.235 248.908,185.189 253.875 L 172.379 262.904 159.985 244.274 L 147.591 225.644 160.046 216.441 C 166.896 211.379,173.321 207.184,174.325 207.119 C 175.329 207.053,181.067 214.404,187.075 223.454 M247.844 240.773 C 249.683 244.473,254.408 253.234,258.344 260.242 L 265.500 272.985 256.500 280.384 C 251.550 284.454,246.810 287.833,245.967 287.892 C 245.123 287.951,238.814 278.949,231.946 267.887 L 219.458 247.774 228.979 241.034 C 241.033 232.501,243.713 232.464,247.844 240.773 M218.774 270.941 C 222.260 277.234,227.190 285.553,229.729 289.428 C 234.202 296.254,233.913 296.772,220.462 306.026 C 212.826 311.280,206.207 315.111,205.754 314.539 C 205.300 313.968,199.144 304.877,192.073 294.338 C 181.087 277.964,179.907 274.790,183.961 272.522 C 186.569 271.062,190.458 268.122,192.602 265.989 C 198.892 259.732,208.342 255.208,210.467 257.437 C 211.549 258.572,215.287 264.649,218.774 270.941 M317.157 258.750 C 318.747 260.813,324.369 270.188,329.650 279.585 L 339.252 296.671 323.619 307.199 C 315.020 312.989,307.199 317.241,306.239 316.648 C 305.278 316.054,299.769 306.606,293.996 295.652 C 285.118 278.807,284.194 275.334,288.000 273.127 C 290.475 271.692,296.550 267.028,301.500 262.763 C 311.760 253.922,313.158 253.564,317.157 258.750 M539.462 289.671 C 554.356 308.357,570.000 331.224,570.000 334.306 C 570.000 336.501,529.594 360.000,525.819 360.000 C 522.432 360.000,487.183 315.572,484.009 307.303 C 482.258 302.739,514.116 270.416,520.642 270.135 C 522.370 270.061,530.839 278.852,539.462 289.671 M284.665 306.572 L 294.830 325.073 288.082 330.536 C 284.372 333.541,279.797 335.985,277.918 335.967 C 276.038 335.949,269.518 327.884,263.428 318.045 L 252.356 300.155 260.083 294.078 C 264.332 290.735,269.315 288.016,271.155 288.036 C 272.995 288.055,279.074 296.397,284.665 306.572 M253.420 324.710 C 259.239 333.350,263.949 341.788,263.886 343.460 C 263.768 346.607,241.708 363.000,237.592 363.000 C 235.158 363.000,216.000 331.179,216.000 327.136 C 216.000 324.706,236.901 309.494,240.670 309.180 C 241.864 309.081,247.601 316.069,253.420 324.710 M443.553 349.997 C 461.408 360.408,469.098 377.730,467.438 403.798 C 466.774 414.232,465.404 423.596,464.394 424.606 C 461.350 427.650,444.982 417.711,433.329 405.745 C 424.133 396.301,408.000 370.095,408.000 364.600 C 408.000 361.527,418.566 363.071,426.750 367.341 C 431.288 369.708,435.000 370.540,435.000 369.189 C 435.000 364.627,426.593 359.719,415.768 357.962 C 406.408 356.443,405.000 355.123,405.000 347.865 C 405.000 339.816,405.460 339.567,417.750 340.951 C 424.763 341.740,436.374 345.811,443.553 349.997 M396.000 345.000 C 393.525 346.599,388.800 347.908,385.500 347.908 C 380.532 347.908,380.274 347.408,384.000 345.000 C 386.475 343.401,391.200 342.092,394.500 342.092 C 399.468 342.092,399.726 342.592,396.000 345.000 M375.565 353.217 C 376.324 357.160,371.375 360.692,355.304 367.679 C 326.454 380.220,292.525 404.219,262.218 433.520 C 238.602 456.351,232.559 465.000,240.223 465.000 C 241.995 465.000,256.507 453.147,272.473 438.659 C 305.024 409.121,332.898 388.534,356.150 376.858 C 374.493 367.648,380.547 367.058,382.923 374.250 C 392.030 401.816,411.350 426.417,437.411 443.630 L 450.322 452.157 442.529 461.419 C 430.494 475.721,405.657 490.900,341.678 523.052 C 282.934 552.574,282.862 552.600,273.612 547.817 C 253.499 537.416,222.000 489.680,222.000 469.600 C 222.000 457.652,221.668 458.038,260.825 424.500 C 308.677 383.516,327.766 369.237,349.153 358.433 C 372.913 346.431,374.209 346.175,375.565 353.217 M399.000 354.000 C 399.000 355.650,395.288 356.979,390.750 356.954 C 384.321 356.918,383.493 356.266,387.000 354.000 C 392.870 350.207,399.000 350.207,399.000 354.000 M400.500 366.000 C 399.480 367.650,395.946 369.000,392.646 369.000 C 389.346 369.000,387.480 367.650,388.500 366.000 C 389.520 364.350,393.054 363.000,396.354 363.000 C 399.654 363.000,401.520 364.350,400.500 366.000 M406.306 377.686 C 407.219 379.163,405.838 381.188,403.237 382.186 C 395.748 385.060,393.000 384.339,393.000 379.500 C 393.000 374.670,403.553 373.231,406.306 377.686 M410.975 396.076 C 405.746 399.379,401.329 398.487,399.771 393.814 C 398.385 389.654,408.472 387.136,412.475 390.643 C 414.386 392.318,413.850 394.260,410.975 396.076 M349.500 402.978 C 335.199 408.574,331.136 411.867,325.906 422.101 C 318.148 437.284,319.573 451.166,330.126 463.185 C 335.145 468.901,343.132 474.431,347.875 475.472 C 359.445 478.014,379.017 472.418,389.202 463.657 C 396.503 457.377,397.500 454.415,397.500 439.010 C 397.500 418.903,390.934 407.203,376.802 402.125 C 366.130 398.290,361.076 398.448,349.500 402.978 M421.678 402.288 C 424.896 407.494,414.841 416.041,410.549 411.749 C 407.890 409.090,407.972 407.148,410.894 403.627 C 415.420 398.174,418.871 397.746,421.678 402.288 M431.293 421.992 C 427.132 426.154,425.515 426.332,421.575 423.062 C 417.287 419.503,417.324 418.615,421.974 413.476 C 426.576 408.391,427.568 408.282,431.692 412.407 C 435.817 416.531,435.776 417.510,431.293 421.992 M379.981 415.424 C 394.365 425.499,389.253 454.423,371.619 462.737 C 359.206 468.589,347.618 466.673,338.826 457.315 C 329.760 447.665,332.132 427.518,343.482 417.755 C 352.682 409.841,370.395 408.710,379.981 415.424 M450.000 428.738 C 450.000 430.128,447.975 432.946,445.500 435.000 C 441.978 437.923,440.051 437.947,436.634 435.112 C 430.060 429.655,437.056 419.284,444.590 423.316 C 447.566 424.908,450.000 427.348,450.000 428.738 M453.372 435.800 C 450.409 438.741,450.065 438.396,451.693 434.121 C 452.819 431.162,454.497 429.497,455.421 430.421 C 456.344 431.344,455.423 433.765,453.372 435.800 M190.454 450.945 L 214.409 454.500 213.459 467.472 C 212.755 477.092,214.704 484.787,221.005 497.254 C 230.427 515.899,266.359 555.000,274.070 555.000 C 281.028 555.000,280.381 559.251,268.316 592.795 C 253.897 632.881,252.539 636.000,249.498 636.000 C 244.471 636.000,207.267 599.679,193.309 581.145 C 173.710 555.121,163.953 533.543,154.772 495.926 C 143.915 451.438,143.860 451.140,146.055 448.945 C 148.800 446.200,162.695 446.826,190.454 450.945 M159.000 466.500 C 159.000 469.923,162.768 471.010,174.750 471.041 C 183.413 471.063,193.538 471.896,197.250 472.891 C 202.033 474.173,204.000 473.401,204.000 470.242 C 204.000 465.479,190.071 462.091,170.250 462.033 C 162.235 462.009,159.000 463.294,159.000 466.500 M467.839 550.266 L 476.966 563.532 466.879 569.766 C 461.331 573.195,455.877 576.000,454.758 576.000 C 453.639 576.000,449.452 568.938,445.453 560.307 L 438.182 544.613 444.841 540.913 C 455.391 535.050,458.139 536.168,467.839 550.266 M55.577 548.851 C 38.195 582.464,71.794 648.109,110.325 655.815 C 124.107 658.571,122.273 653.454,107.239 647.205 C 100.232 644.293,90.156 638.078,84.847 633.395 C 63.452 614.521,49.988 567.649,61.092 550.702 C 66.758 542.055,67.139 540.000,63.077 540.000 C 61.469 540.000,58.094 543.983,55.577 548.851 M83.564 555.750 C 82.325 583.457,87.689 601.573,101.409 616.018 C 110.896 626.005,125.710 634.359,128.529 631.310 C 129.613 630.138,128.682 628.532,126.459 627.742 C 118.126 624.781,101.429 607.642,95.441 595.905 C 91.208 587.606,89.179 577.745,89.058 564.871 C 88.877 545.597,84.354 538.088,83.564 555.750 M437.004 565.580 L 443.508 582.148 428.854 589.574 C 420.794 593.658,413.579 597.000,412.820 597.000 C 411.071 597.000,395.604 563.396,396.802 562.198 C 398.588 560.412,424.589 549.418,427.500 549.218 C 429.150 549.105,433.427 556.468,437.004 565.580 M162.311 558.889 C 158.461 562.739,154.556 559.763,157.407 555.151 C 158.511 553.364,160.789 552.752,162.469 553.790 C 164.518 555.056,164.466 556.734,162.311 558.889 M106.689 562.022 C 103.389 573.379,108.937 591.119,118.906 601.088 C 131.915 614.096,137.150 610.607,124.925 597.076 C 114.294 585.308,112.099 580.169,110.155 562.500 L 109.166 553.500 106.689 562.022 M141.000 568.500 C 141.000 570.975,138.975 573.000,136.500 573.000 C 131.815 573.000,130.548 569.452,134.000 566.000 C 137.452 562.548,141.000 563.815,141.000 568.500 M391.577 586.961 C 395.702 596.290,398.723 604.224,398.289 604.592 C 396.801 605.856,372.240 618.000,371.171 618.000 C 369.368 618.000,352.845 582.128,354.215 581.188 C 358.635 578.153,377.135 570.352,380.288 570.192 C 382.371 570.086,387.451 577.633,391.577 586.961 M494.114 591.750 C 500.686 602.063,506.999 612.139,508.143 614.143 C 509.489 616.501,504.938 620.464,495.241 625.378 L 480.259 632.970 469.441 610.173 C 463.491 597.635,459.046 586.998,459.562 586.535 C 460.603 585.600,481.305 573.029,481.832 573.011 C 482.015 573.005,487.542 581.438,494.114 591.750 M459.125 613.780 C 464.006 624.658,468.000 634.761,468.000 636.229 C 468.000 637.698,461.281 642.304,453.069 646.465 L 438.138 654.031 432.407 642.766 C 429.255 636.570,424.590 626.489,422.039 620.364 L 417.401 609.228 429.951 601.914 C 436.853 597.891,444.244 594.465,446.375 594.300 C 448.507 594.135,454.244 602.901,459.125 613.780 M414.787 636.831 C 419.345 647.099,423.057 656.937,423.037 658.694 C 423.017 660.451,417.938 664.466,411.750 667.616 C 405.563 670.766,399.689 673.762,398.697 674.273 C 396.954 675.171,377.984 635.226,378.015 630.724 C 378.031 628.455,398.059 618.745,403.500 618.369 C 405.150 618.255,410.229 626.563,414.787 636.831 M529.544 646.764 C 535.664 655.985,539.508 664.580,538.086 665.865 C 536.664 667.151,529.200 671.819,521.500 676.240 L 507.500 684.277 498.232 666.889 C 493.134 657.325,488.869 648.304,488.754 646.843 C 488.523 643.933,509.404 630.737,514.958 630.283 C 516.860 630.127,523.424 637.544,529.544 646.764 M485.957 668.914 C 490.931 678.767,495.000 687.520,495.000 688.364 C 495.000 690.219,466.258 705.000,462.652 705.000 C 461.251 705.000,456.818 697.276,452.802 687.836 C 448.786 678.395,445.074 669.691,444.553 668.493 C 443.673 666.473,469.774 651.452,474.707 651.140 C 475.921 651.063,480.983 659.062,485.957 668.914 M437.949 689.083 C 449.165 714.440,449.041 715.837,434.918 723.042 C 427.970 726.586,421.324 728.364,420.147 726.993 C 417.063 723.399,405.000 692.855,405.000 688.641 C 405.000 685.205,420.727 676.188,428.110 675.390 C 430.095 675.175,434.523 681.337,437.949 689.083 M559.225 697.603 C 565.151 708.385,569.997 718.848,569.993 720.853 C 569.986 724.403,537.882 742.983,535.765 740.663 C 531.174 735.632,512.855 694.545,514.894 693.852 C 516.327 693.366,522.900 689.642,529.500 685.577 C 536.100 681.513,543.064 678.145,544.975 678.094 C 546.886 678.042,553.298 686.821,559.225 697.603 M515.151 724.358 L 527.301 746.715 509.257 757.464 C 499.333 763.376,490.875 767.827,490.462 767.356 C 487.952 764.493,471.376 729.376,470.527 725.123 C 469.823 721.595,474.220 717.195,484.500 711.139 C 492.750 706.279,500.288 702.234,501.250 702.151 C 502.213 702.068,508.468 712.061,515.151 724.358 M466.167 751.811 C 472.125 764.358,477.000 774.991,477.000 775.442 C 477.000 778.186,445.822 789.022,443.785 786.985 C 442.415 785.615,437.893 775.461,433.738 764.421 L 426.183 744.349 438.841 736.974 C 445.804 732.919,452.363 729.465,453.417 729.300 C 454.471 729.135,460.209 739.265,466.167 751.811 " stroke="none" fill="black" fill-rule="evenodd"/></svg>